<?xml version="1.0" encoding="UTF-8"?>
<svg id="Layer_1" xmlns="http://www.w3.org/2000/svg" version="1.1" xmlns:xlink="http://www.w3.org/1999/xlink" viewBox="0 0 1000 1000">
  <!-- Generator: Adobe Illustrator 29.8.2, SVG Export Plug-In . SVG Version: 2.1.1 Build 3)  -->
  <defs>
    <style>
      .st0 {
        fill: url(#linear-gradient2);
      }

      .st1 {
        fill: url(#linear-gradient36);
      }

      .st2 {
        fill: url(#linear-gradient34);
      }

      .st3 {
        fill: url(#linear-gradient33);
      }

      .st4 {
        fill: url(#linear-gradient10);
      }

      .st5 {
        fill: url(#linear-gradient32);
      }

      .st6 {
        fill: url(#linear-gradient21);
      }

      .st7 {
        fill: url(#linear-gradient37);
      }

      .st8 {
        fill: url(#linear-gradient27);
      }

      .st9 {
        fill: url(#linear-gradient35);
      }

      .st10 {
        fill: url(#linear-gradient26);
      }

      .st11 {
        fill: url(#linear-gradient1);
      }

      .st12 {
        fill: url(#linear-gradient9);
      }

      .st13 {
        fill: url(#linear-gradient18);
      }

      .st14 {
        fill: url(#linear-gradient23);
      }

      .st15 {
        fill: url(#linear-gradient8);
      }

      .st16 {
        fill: url(#linear-gradient11);
      }

      .st17 {
        fill: url(#linear-gradient16);
      }

      .st18 {
        fill: url(#linear-gradient24);
      }

      .st19 {
        fill: url(#linear-gradient30);
      }

      .st20 {
        fill: url(#linear-gradient22);
      }

      .st21 {
        fill: url(#linear-gradient29);
      }

      .st22 {
        fill: url(#linear-gradient19);
      }

      .st23 {
        fill: url(#linear-gradient12);
      }

      .st24 {
        fill: url(#linear-gradient28);
      }

      .st25 {
        fill: url(#linear-gradient7);
      }

      .st26 {
        fill: url(#linear-gradient20);
      }

      .st27 {
        fill: url(#linear-gradient4);
      }

      .st28 {
        fill: url(#linear-gradient31);
      }

      .st29 {
        fill: url(#linear-gradient14);
      }

      .st30 {
        fill: url(#linear-gradient5);
      }

      .st31 {
        fill: url(#linear-gradient3);
      }

      .st32 {
        fill: url(#linear-gradient25);
      }

      .st33 {
        fill: url(#linear-gradient15);
      }

      .st34 {
        fill: url(#linear-gradient17);
      }

      .st35 {
        fill: url(#linear-gradient6);
      }

      .st36 {
        fill: url(#linear-gradient13);
      }

      .st37 {
        fill: url(#linear-gradient);
      }
    </style>
    <linearGradient id="linear-gradient" x1="100.71" y1="486.06" x2="915.47" y2="497.95" gradientUnits="userSpaceOnUse">
      <stop offset="0" stop-color="#a27b2c"/>
      <stop offset=".15" stop-color="#d2a74a"/>
      <stop offset=".33" stop-color="#fdea92"/>
      <stop offset=".54" stop-color="#e4bb67"/>
      <stop offset=".71" stop-color="#ffd67a"/>
      <stop offset=".85" stop-color="#b38d3c"/>
      <stop offset="1" stop-color="#926e2b"/>
    </linearGradient>
    <linearGradient id="linear-gradient1" x1="100.71" y1="486.07" x2="915.47" y2="497.95" xlink:href="#linear-gradient"/>
    <linearGradient id="linear-gradient2" x1="100.78" y1="481.24" x2="915.54" y2="493.12" xlink:href="#linear-gradient"/>
    <linearGradient id="linear-gradient3" x1="100.78" y1="481.25" x2="915.54" y2="493.13" xlink:href="#linear-gradient"/>
    <linearGradient id="linear-gradient4" x1="104.09" y1="254.53" x2="918.85" y2="266.41" xlink:href="#linear-gradient"/>
    <linearGradient id="linear-gradient5" x1="104.19" y1="247.63" x2="918.95" y2="259.52" xlink:href="#linear-gradient"/>
    <linearGradient id="linear-gradient6" x1="103.86" y1="270.11" x2="918.62" y2="281.99" xlink:href="#linear-gradient"/>
    <linearGradient id="linear-gradient7" x1="102.9" y1="336.01" x2="917.66" y2="347.9" xlink:href="#linear-gradient"/>
    <linearGradient id="linear-gradient8" x1="99.76" y1="551.04" x2="914.52" y2="562.93" xlink:href="#linear-gradient"/>
    <linearGradient id="linear-gradient9" x1="99.16" y1="592.06" x2="913.93" y2="603.94" xlink:href="#linear-gradient"/>
    <linearGradient id="linear-gradient10" x1="101.15" y1="456.13" x2="915.91" y2="468.01" xlink:href="#linear-gradient"/>
    <linearGradient id="linear-gradient11" x1="102.83" y1="340.4" x2="917.6" y2="352.28" xlink:href="#linear-gradient"/>
    <linearGradient id="linear-gradient12" x1="103.1" y1="322.21" x2="917.86" y2="334.09" xlink:href="#linear-gradient"/>
    <linearGradient id="linear-gradient13" x1="103.07" y1="324.1" x2="917.83" y2="335.98" xlink:href="#linear-gradient"/>
    <linearGradient id="linear-gradient14" x1="102.46" y1="366.04" x2="917.22" y2="377.92" xlink:href="#linear-gradient"/>
    <linearGradient id="linear-gradient15" x1="102.1" y1="390.93" x2="916.86" y2="402.81" xlink:href="#linear-gradient"/>
    <linearGradient id="linear-gradient16" x1="361.95" y1="391.22" x2="463.51" y2="392.7" xlink:href="#linear-gradient"/>
    <linearGradient id="linear-gradient17" x1="99.1" y1="596.17" x2="913.87" y2="608.05" xlink:href="#linear-gradient"/>
    <linearGradient id="linear-gradient18" x1="99.11" y1="595.78" x2="913.87" y2="607.66" xlink:href="#linear-gradient"/>
    <linearGradient id="linear-gradient19" x1="99.11" y1="595.4" x2="913.88" y2="607.29" xlink:href="#linear-gradient"/>
    <linearGradient id="linear-gradient20" x1="97.72" y1="473.51" x2="902.91" y2="470.54" xlink:href="#linear-gradient"/>
    <linearGradient id="linear-gradient21" x1="67.59" y1="742.48" x2="911.41" y2="750.4" xlink:href="#linear-gradient"/>
    <linearGradient id="linear-gradient22" x1="67.6" y1="741.59" x2="911.42" y2="749.51" xlink:href="#linear-gradient"/>
    <linearGradient id="linear-gradient23" x1="67.61" y1="740.57" x2="911.43" y2="748.49" xlink:href="#linear-gradient"/>
    <linearGradient id="linear-gradient24" x1="67.62" y1="739.57" x2="911.44" y2="747.49" xlink:href="#linear-gradient"/>
    <linearGradient id="linear-gradient25" x1="67.72" y1="729.03" x2="911.54" y2="736.95" xlink:href="#linear-gradient"/>
    <linearGradient id="linear-gradient26" x1="67.64" y1="737.81" x2="911.45" y2="745.73" xlink:href="#linear-gradient"/>
    <linearGradient id="linear-gradient27" x1="67.65" y1="736.52" x2="911.47" y2="744.44" xlink:href="#linear-gradient"/>
    <linearGradient id="linear-gradient28" x1="67.75" y1="725.82" x2="911.57" y2="733.74" xlink:href="#linear-gradient"/>
    <linearGradient id="linear-gradient29" x1="68.22" y1="667.09" x2="912.04" y2="675.02" xlink:href="#linear-gradient"/>
    <linearGradient id="linear-gradient30" x1="68.23" y1="666.68" x2="912.04" y2="674.6" xlink:href="#linear-gradient"/>
    <linearGradient id="linear-gradient31" x1="68.02" y1="688.27" x2="911.84" y2="696.2" xlink:href="#linear-gradient"/>
    <linearGradient id="linear-gradient32" x1="68.23" y1="666.5" x2="912.04" y2="674.42" xlink:href="#linear-gradient"/>
    <linearGradient id="linear-gradient33" x1="68.24" y1="665.75" x2="912.05" y2="673.68" xlink:href="#linear-gradient"/>
    <linearGradient id="linear-gradient34" x1="68.24" y1="665.67" x2="912.05" y2="673.59" xlink:href="#linear-gradient"/>
    <linearGradient id="linear-gradient35" x1="68.47" y1="641.28" x2="912.28" y2="649.21" xlink:href="#linear-gradient"/>
    <linearGradient id="linear-gradient36" x1="68.24" y1="665.09" x2="912.06" y2="673.01" xlink:href="#linear-gradient"/>
    <linearGradient id="linear-gradient37" x1="68.25" y1="664.7" x2="912.06" y2="672.62" xlink:href="#linear-gradient"/>
  </defs>
  <g>
    <g>
      <path class="st37" d="M366.37,412.43c-42.81,0-77.52,34.7-77.52,77.52s34.7,77.5,77.52,77.5,77.52-34.69,77.52-77.5-34.7-77.52-77.52-77.52ZM366.37,564c-40.83,0-74.06-33.22-74.06-74.05s33.23-74.06,74.06-74.06,74.06,33.23,74.06,74.06-33.22,74.05-74.06,74.05Z"/>
      <path class="st11" d="M366.37,420.38c-38.36,0-69.56,31.2-69.56,69.56s31.2,69.56,69.56,69.56,69.58-31.2,69.58-69.56-31.21-69.56-69.58-69.56ZM325.23,476.28c4.91.35,9.39,5.68,10.32,7.63,1.01,2.12.1,9-3.12,9s-8.22-9.58-9.09-12.7c-.25-.88-.3-1.56-.26-2.11.08-1.1,1.05-1.9,2.15-1.82ZM355.22,512.96c-.37,1.29-1.32,2.13-2.48,2.74-.26.14-.54.28-.84.34-.16.03-.34.03-.5,0-1.1-.25-2.13-1.44-2.87-2.2-1.06-1.09-2.03-2.26-2.96-3.47-1.19-1.53-2.34-3.08-3.41-4.68-1.87,11.39-15.49,21.49-16.78,21.97s-7.31,1.68-1.73-3.7c5.57-5.39,10.77-15.97,13.02-25.49,2.24-9.52,2.17-27.98,1.98-36.06-.19-8.08-1.98-11.61-1.98-11.61-.32-2.43,3.45-3.84,6.35-2.69,2.88,1.15,6.72,2.06,5.25,6.61-1.47,4.55-1.8,20.51-1.8,20.51,1.34.78,5.78-11.47,5.78-11.47,4.93-1.22,8.71,4.68,9.23,5.9.5,1.22-.45,2.31-3.92,4.42-3.47,2.12-11.22,7.95-11.22,7.95-.25,10.9-2.37,19.49-2.37,19.49,2.03.43,4.05,1.03,5.94,1.93,1.9.91,3.97,2.17,4.84,4.19.67,1.55.97,3.69.49,5.33ZM414.61,523.83c-.89,1.02-10.58,9.68-26.42,8.97-15.83-.71-22.18-1.41-29.17-10.19,0,0-.8-.45-.98-5.77-.17-5.33,0-27.48,0-27.48,0,0-2.68-1.32.21-4.46,0,0-1.15-2.24,1.94-6.54,3.06-4.29,10.19-21.15,10.45-25.19.26-4.03-.58-8.99,3.27-8.21,3.84.78,9.04,5,8.33,7.37-.7,2.38-8.59,15.71-8.59,15.71,0,0-1.28,1.28.96.89,2.24-.38,16.54-4.05,16.54-4.05,0,0,4.75-2.19,8.4,0,3.65,2.2,4.42,5.28,4.42,5.28,0,0-1.47,5.18-2.25,9.1-.76,3.9-1.59,9.3-2.5,14.61-.91,5.33-3.08,13.46-9.68,15.45,0,0-1.41.65-4.36-4.29-2.95-4.93-4.94-5.13-4.87-6.35.06-1.22,2.06-2.75,6.61-.39,0,0,1.54.97,2.37.13.84-.83,2.31-5.44,3.34-15.5,0,0,1.03-6.93,1.36-10.2.31-3.26-11.22.19-11.22.19,0,0-11.29,5.06-12.57,2.04l-9.36,9.49s1.73,2.25,5.31.78c3.59-1.47,8.66-3.21,10.2-2.88s5.96,2.5,6.53,4.62c.58,2.12-3.52,5.26-4.47,10.51,0,0-.61,1.95.69,3.35,1.29,1.4-.48,2.64-.48,2.64,0,0-6.68,2.37-14.2,3.13v10.91s.13,5.5,11.16,6.58c11.03,1.09,22.38-1.16,25.14-3.53,2.75-2.37,3.59-4.81,3.72-6.93.13-2.11.89-9.61,3.71-9.87,2.82-.26,2.44,8.02,3.27,9.68,0,0,.96,3.71,2.69,5.18,1.73,1.47,1.41,4.16.52,5.2ZM371.33,498.44c-.06-.7,1.34-9.06,1.34-9.06-8.39-.35-7.76,4.14-7.76,4.14l-.39,6.79s6.87-1.15,6.8-1.86Z"/>
      <path class="st0" d="M697.07,412.43c-42.8,0-77.5,34.7-77.5,77.52s34.7,77.5,77.5,77.5,77.52-34.69,77.52-77.5-34.7-77.52-77.52-77.52ZM697.07,564c-40.83,0-74.06-33.22-74.06-74.05s33.23-74.06,74.06-74.06,74.06,33.23,74.06,74.06-33.22,74.05-74.06,74.05Z"/>
      <path class="st31" d="M697.64,481.97v6.9c3.81-.67,7.2-1.27,10.51-1.86v-5.82c-3.65.27-6.98.52-10.51.78ZM703.83,469.04c-5.86.66-6.04.87-5.29,7.12,3.18-.52,6.36-1.03,9.76-1.58v-6.39c-1.71.32-3.08.69-4.47.84ZM699.72,456.12c-.23,2.25-.48,4.59-.76,7.24,3.59-.49,6.41-.88,9.37-1.28.5-7.19.21-7.38-8.61-5.96ZM699.72,456.12c-.23,2.25-.48,4.59-.76,7.24,3.59-.49,6.41-.88,9.37-1.28.5-7.19.21-7.38-8.61-5.96ZM703.83,469.04c-5.86.66-6.04.87-5.29,7.12,3.18-.52,6.36-1.03,9.76-1.58v-6.39c-1.71.32-3.08.69-4.47.84ZM697.64,481.97v6.9c3.81-.67,7.2-1.27,10.51-1.86v-5.82c-3.65.27-6.98.52-10.51.78ZM697.64,481.97v6.9c3.81-.67,7.2-1.27,10.51-1.86v-5.82c-3.65.27-6.98.52-10.51.78ZM703.83,469.04c-5.86.66-6.04.87-5.29,7.12,3.18-.52,6.36-1.03,9.76-1.58v-6.39c-1.71.32-3.08.69-4.47.84ZM699.72,456.12c-.23,2.25-.48,4.59-.76,7.24,3.59-.49,6.41-.88,9.37-1.28.5-7.19.21-7.38-8.61-5.96ZM699.72,456.12c-.23,2.25-.48,4.59-.76,7.24,3.59-.49,6.41-.88,9.37-1.28.5-7.19.21-7.38-8.61-5.96ZM703.83,469.04c-5.86.66-6.04.87-5.29,7.12,3.18-.52,6.36-1.03,9.76-1.58v-6.39c-1.71.32-3.08.69-4.47.84ZM697.64,481.97v6.9c3.81-.67,7.2-1.27,10.51-1.86v-5.82c-3.65.27-6.98.52-10.51.78ZM697.64,481.97v6.9c3.81-.67,7.2-1.27,10.51-1.86v-5.82c-3.65.27-6.98.52-10.51.78ZM703.83,469.04c-5.86.66-6.04.87-5.29,7.12,3.18-.52,6.36-1.03,9.76-1.58v-6.39c-1.71.32-3.08.69-4.47.84ZM699.72,456.12c-.23,2.25-.48,4.59-.76,7.24,3.59-.49,6.41-.88,9.37-1.28.5-7.19.21-7.38-8.61-5.96ZM699.72,456.12c-.23,2.25-.48,4.59-.76,7.24,3.59-.49,6.41-.88,9.37-1.28.5-7.19.21-7.38-8.61-5.96ZM703.83,469.04c-5.86.66-6.04.87-5.29,7.12,3.18-.52,6.36-1.03,9.76-1.58v-6.39c-1.71.32-3.08.69-4.47.84ZM697.64,481.97v6.9c3.81-.67,7.2-1.27,10.51-1.86v-5.82c-3.65.27-6.98.52-10.51.78ZM697.64,481.97v6.9c3.81-.67,7.2-1.27,10.51-1.86v-5.82c-3.65.27-6.98.52-10.51.78ZM703.83,469.04c-5.86.66-6.04.87-5.29,7.12,3.18-.52,6.36-1.03,9.76-1.58v-6.39c-1.71.32-3.08.69-4.47.84ZM699.72,456.12c-.23,2.25-.48,4.59-.76,7.24,3.59-.49,6.41-.88,9.37-1.28.5-7.19.21-7.38-8.61-5.96ZM699.72,456.12c-.23,2.25-.48,4.59-.76,7.24,3.59-.49,6.41-.88,9.37-1.28.5-7.19.21-7.38-8.61-5.96ZM698.54,476.16c3.18-.52,6.36-1.03,9.76-1.58v-6.39c-1.71.32-3.08.69-4.47.84-5.86.66-6.04.87-5.29,7.12ZM697.64,488.87c3.81-.67,7.2-1.27,10.51-1.86v-5.82c-3.65.27-6.98.52-10.51.78v6.9ZM697.07,420.38c-38.36,0-69.56,31.2-69.56,69.56s31.2,69.56,69.56,69.56,69.58-31.2,69.58-69.56-31.21-69.56-69.58-69.56ZM676.46,484.84c-.57,10.07-.66,20.18-1.18,30.27-.18,3.49-.87,7-1.72,10.4-.28,1.11-1.76,2.43-2.88,2.65-.87.17-2.41-1.03-2.99-2.03-1.97-3.3-2.91-6.68-2-10.8,2.48-11.28,3.25-22.73,2.69-34.79-4.28,3.71-8.16,7.12-12.09,10.46-1.09.92-2.26,1.87-3.57,2.38-1.03.4-2.31.12-3.49.13.32-1.14.32-2.55,1.02-3.4,4.45-5.48,9.41-10.59,13.51-16.32,3.76-5.3,6.93-11.09,9.81-16.93,1.34-2.7,1.46-6.04,2.03-9.1.72-3.9,2.53-4.9,6.05-2.94,1.45.8,2.73,1.99,3.94,3.17,1.89,1.81,1.8,3.45.19,5.79-4.37,6.34-8.3,12.98-12.62,19.86,4.8,2.74,3.52,6.98,3.28,11.2ZM689.61,508.62c-.18,1.85-.62,3.69-1.14,5.37-.83,2.74-2.92,9.15-6.93,6.7-7.16-4.41.52-15.1,3.3-19.83,1.73-2.94,3.72-.09,4.37,1.98.57,1.86.6,3.88.4,5.79ZM702.33,511.91c-.01.08-.01.15-.04.22-.23,1.37-.93,4.14-2.7,4.18-.34,0-.66-.14-.96-.3-2.15-1.12-3.65-3.09-4.62-5.26-1.05-2.3-1.9-5.21-1.93-7.75,0-.4.04-.83.25-1.16.3-.47.87-.7,1.41-.71,2.6-.1,5.18,2.16,6.67,4.06,1.42,1.84,2.25,4.38,1.91,6.72ZM707.98,512.34c-2.03-3-3.4-6.3-5.07-9.48-.32-.59-.57-1.25-.47-1.93.08-.45.32-.87.63-1.22.25-.27.53-.45.81-.58.92-.39,2.02-.15,2.97.25,2.2.91,4.22,2.33,5.59,4.28,1.54,2.19,2.33,5.26,1.18,7.78-1.36,2.99-3.83,3.58-5.65.89ZM743.23,492.08c-1.5,7.8-3.25,15.55-4.91,23.31-1.55,7.2-3.93,13.82-10.93,17.77-2.96,1.68-5.16,1.51-6.9-1.46-2.33-4.01-4.59-8.04-6.88-12.06.27-.39.53-.76.8-1.14,1.75.45,3.58.7,5.24,1.38,4.43,1.81,7.47,1.24,8.64-3.34,1.84-7.29,2.59-14.87,3.53-22.37.08-.65-1.81-2.21-2.81-2.22-10.91-.17-21.67,1-32.21,4-1.94.54-4.82,1.05-6.04.06-2.31-1.87-2.51-4.68-1.86-8.11,1.42-7.54,1.98-15.28,2.29-22.98.18-4.37-.62-8.83-1.34-13.19-.47-2.82.94-3.52,3-3.08,11.04,2.39,21.46-1.27,32.12-2.91,2.38-.36,5.04.61,7.49,1.28.78.21,1.93,1.69,1.76,2.2-.31.93-1.38,1.99-2.33,2.25-3.03.8-6.13,1.4-9.23,1.81-5,.67-5.64,1.38-5.24,6.4,2.94,0,5.86-.19,8.79-.03,2.24.12,4.43,1.41,5.62,3.31.36.59-3.75,1.98-4.11,2.11-2.11.75-4.12,1.44-6.39,1.41-4.63-.06-5.69,2.24-4.64,6.75,1.73-.16,3.62-.3,5.5-.5,1.67-.17,2.3-.57,3.85.23,1.77.91,3.48,1.9,5.17,2.95-.21,0-2.82,1.67-3.16,1.84-1.23.57-2.52,1.03-3.84,1.37-2.55.63-5.2.7-7.78,1.09v6.05c4.1-.56,8.09-.62,11.78-1.71,5.57-1.66,9.7.83,13.71,3.84.89.66,1.54,2.55,1.32,3.69ZM715.31,496.09c1.18-1.22,3.15-.49,4.38.25,1.72,1.05,3.32,2.6,4.56,4.16,1.03,1.29,1.82,2.82,2.02,4.46.05.5.04,1.02-.03,1.53-.17,1.14-.66,2.24-1.5,3.01-.61.57-1.42.97-2.25.89-.49-.04-.96-.23-1.37-.49-1.68-1.01-2.78-2.88-3.67-4.59-.92-1.77-1.71-3.61-2.51-5.43-.49-1.15-.57-2.83.36-3.79ZM699.72,456.12c-.23,2.25-.48,4.59-.76,7.24,3.59-.49,6.41-.88,9.37-1.28.5-7.19.21-7.38-8.61-5.96ZM698.54,476.16c3.18-.52,6.36-1.03,9.76-1.58v-6.39c-1.71.32-3.08.69-4.47.84-5.86.66-6.04.87-5.29,7.12ZM697.64,488.87c3.81-.67,7.2-1.27,10.51-1.86v-5.82c-3.65.27-6.98.52-10.51.78v6.9ZM697.64,481.97v6.9c3.81-.67,7.2-1.27,10.51-1.86v-5.82c-3.65.27-6.98.52-10.51.78ZM703.83,469.04c-5.86.66-6.04.87-5.29,7.12,3.18-.52,6.36-1.03,9.76-1.58v-6.39c-1.71.32-3.08.69-4.47.84ZM699.72,456.12c-.23,2.25-.48,4.59-.76,7.24,3.59-.49,6.41-.88,9.37-1.28.5-7.19.21-7.38-8.61-5.96ZM699.72,456.12c-.23,2.25-.48,4.59-.76,7.24,3.59-.49,6.41-.88,9.37-1.28.5-7.19.21-7.38-8.61-5.96ZM703.83,469.04c-5.86.66-6.04.87-5.29,7.12,3.18-.52,6.36-1.03,9.76-1.58v-6.39c-1.71.32-3.08.69-4.47.84ZM697.64,481.97v6.9c3.81-.67,7.2-1.27,10.51-1.86v-5.82c-3.65.27-6.98.52-10.51.78ZM697.64,481.97v6.9c3.81-.67,7.2-1.27,10.51-1.86v-5.82c-3.65.27-6.98.52-10.51.78ZM703.83,469.04c-5.86.66-6.04.87-5.29,7.12,3.18-.52,6.36-1.03,9.76-1.58v-6.39c-1.71.32-3.08.69-4.47.84ZM699.72,456.12c-.23,2.25-.48,4.59-.76,7.24,3.59-.49,6.41-.88,9.37-1.28.5-7.19.21-7.38-8.61-5.96ZM699.72,456.12c-.23,2.25-.48,4.59-.76,7.24,3.59-.49,6.41-.88,9.37-1.28.5-7.19.21-7.38-8.61-5.96ZM703.83,469.04c-5.86.66-6.04.87-5.29,7.12,3.18-.52,6.36-1.03,9.76-1.58v-6.39c-1.71.32-3.08.69-4.47.84ZM697.64,481.97v6.9c3.81-.67,7.2-1.27,10.51-1.86v-5.82c-3.65.27-6.98.52-10.51.78ZM697.64,481.97v6.9c3.81-.67,7.2-1.27,10.51-1.86v-5.82c-3.65.27-6.98.52-10.51.78ZM703.83,469.04c-5.86.66-6.04.87-5.29,7.12,3.18-.52,6.36-1.03,9.76-1.58v-6.39c-1.71.32-3.08.69-4.47.84ZM699.72,456.12c-.23,2.25-.48,4.59-.76,7.24,3.59-.49,6.41-.88,9.37-1.28.5-7.19.21-7.38-8.61-5.96ZM699.72,456.12c-.23,2.25-.48,4.59-.76,7.24,3.59-.49,6.41-.88,9.37-1.28.5-7.19.21-7.38-8.61-5.96ZM703.83,469.04c-5.86.66-6.04.87-5.29,7.12,3.18-.52,6.36-1.03,9.76-1.58v-6.39c-1.71.32-3.08.69-4.47.84ZM697.64,481.97v6.9c3.81-.67,7.2-1.27,10.51-1.86v-5.82c-3.65.27-6.98.52-10.51.78Z"/>
      <path class="st27" d="M439.54,274.84l29.73-16.84h.01c14.52,4.97,29.49,11.24,44.87,19.05l5.72-3.75s-18.7-15.72-52.34-30.02l-9.79,11.03-18.19,20.53Z"/>
      <path class="st30" d="M326.79,246.67c34.69-6.56,76.99-7.37,124.76,5.86l10.38-11.55c-35.18-14.08-85.05-25.83-145.89-18.23v58.92l10.73-35h.01Z"/>
      <path class="st35" d="M230.22,321.29l-10.21-27.4h0c1.89-1.51,3.83-3.01,5.82-4.51,0,0,30.72-24.98,82.82-38.62v-27c-20.05,2.99-41.25,8.08-63.45,15.88,0,0-26.56,9.34-56.61,30.83l24.17,29.49,17.47,21.33Z"/>
      <path class="st25" d="M189.52,399.61l-28.61-17.03c5.61-24.93,19.11-52.33,47.04-78.3l-25.32-29.43c-30.37,23.08-62.71,58.44-73.99,108.92l50.25,9.84,30.63,6Z"/>
      <path class="st15" d="M274.69,530.37l-25.37,23.71c-21.85-12.48-43.47-29.96-61.87-54.41l-48.41,28.16c30.27,40.81,73.9,65.17,103.23,77.93l17-46.33,15.41-29.07Z"/>
      <path class="st12" d="M371.53,584.95s-51.4,2.96-106.12-22.54l-16.72,46.06c15.13,6.19,25.12,8.86,25.12,8.86,0,0,39.6,11.43,93.76,10.54,54.14-.88,422.5,0,422.5,0l26.23-42.92h-444.78Z"/>
      <path class="st4" d="M209.32,480.85h-34.48c-1.84-3.06-3.61-6.22-5.34-9.46,0,0-15.28-30.76-11.31-71.78l-51.04-8.34c-2.29,12.98-3.21,26.91-2.37,41.83,1.98,35.35,13.56,64.56,29.82,88.47l49.25-26.84,25.47-13.87Z"/>
      <path class="st16" d="M732.66,346.47s6.83,8.61,2.28,17.55c-2.37,4.65-8.11,6.89-12.8,8.29-4.29,1.29-8.75,1.6-13.14,2.37-10.28,1.8-20,5.68-29.64,9.55-11.51,4.62-22.78,10.06-33.16,16.87-7.09,4.65-13.84,10-19.39,16.44,0,0,72.05-53.85,143.56-22.64,0,0-3.58-37.7-44.85-77.68-41.28-39.98-77.36-38.35-77.36-38.35,0,0,65.98,34.45,84.51,67.61Z"/>
      <path class="st23" d="M483.58,344.41s26.22-19.72,55.58-26.44c29.36-6.72,57.64-.12,66.41,10.94,1.88,2.37,5.23,6.48,4.14,9.85-.97,2.98-6.13,4.44-8.92,5.52-3.05,1.18-6.18,2.15-9.32,3.05-4.73,1.35-9.51,2.52-14.3,3.6-3.15.71-6.32,1.39-9.49,2.03-1.8.37-3.61.72-5.41,1.07-1.86.36-4,1.1-5.88,1.11,0,0,65.6-.38,132.07-27.52,0,0-21.56-16.68-40.09-17.23-18.53-.54,2.6,11.38,2.6,11.38,0,0,6.5,3.14,4.12,6.07-2.38,2.93-14.3-2.17-21.56-5.53-7.26-3.36-24.86-11.76-28.77-12.97-3.9-1.22-26.6-11.51-62.57-3.82-35.97,7.69-58.61,38.9-58.61,38.9Z"/>
      <path class="st36" d="M505.63,337.86l-19.34,9.48s-6.93,2.82-17.98,2.6c-11.05-.22-52.38-6.39-65.22-14.19-12.84-7.8-24.21-20.8-27.79-28.44,0,0-2.36-3.98-6.99-3.98s-45.5-.89-80.28-8.04c0,0-3.82-.49-2.93,2.68.89,3.17,19.83,26.82,19.83,26.82,0,0,3.09,1.66,3.98-2.17,0,0-1.79-4.24-3.09-6.76-1.3-2.52-3.9-6.46-1.91-7.27,1.99-.81,12.23-.12,18.4,1.18,6.18,1.3,33.32,6.83,39.49,9.53,0,0,3.03.65,5.31,4.23,2.28,3.58,14.3,19.39,37.49,28.06,23.19,8.67,41.55,9.21,64.14,9.37,0,0,10.24.65,24.21-11.7,13.98-12.35,12.68-11.38,12.68-11.38Z"/>
      <path class="st29" d="M525.62,391.11s15.93-1.41,25.51-3.85c9.59-2.44,46.15-8.13,56.56-9.91,10.4-1.79,34.45-5.36,44.04-6.01,9.59-.65,33.32-5.09,45.34-16.2,0,0-45.18,2.88-65.01,5.8-19.83,2.92-35.1,5.03-41.93,7.14-6.83,2.11-39.49,8.29-39.49,8.29,0,0-39.65,9.59-63.06,6.5-23.4-3.09-44.31-10.4-44.31-10.4,0,0,36.4,22.75,82.34,18.64Z"/>
      <path class="st33" d="M317.4,406.14s10.18.87,15.17-1.08c4.98-1.95,29.58-13.11,60.13-2.71,0,0,9.75,3.53,14.73,3.98,4.98.46,7.91,0,7.91,0,0,0-17.77-23.27-46.91-23.7-29.14-.43-45.5,16.58-51.03,23.51Z"/>
      <path class="st17" d="M462.45,404.44c-1.84,2.16-16.25,14.37-16.25,14.37l-10.25,10.86-12.17-10.86s9.97-6.57,15.81-10.14c5.86-3.58,4.99-5.64,4.99-5.64-5.99-7.68-79.78-47.91-82.08-49.16,36.42,12.57,98.32,43.52,99.41,44.17,1.09.66,2.39,4.23.54,6.4Z"/>
      <polygon class="st34" points="824.46 585.49 799.15 627.91 817.63 627.91 842.94 585.49 824.46 585.49"/>
      <polygon class="st13" points="851.29 585.49 825.98 627.91 844.47 627.91 869.78 585.49 851.29 585.49"/>
      <polygon class="st22" points="877.04 585.49 851.73 627.91 870.22 627.91 895.53 585.49 877.04 585.49"/>
    </g>
    <path class="st26" d="M451.48,468.2s122.15,19.78,153.84,38.3c0,0-6.44-42.94,17.69-69.79,0,0-30.34,16.65-33.86,48.32,0,0-56.01-16.16-137.66-16.84Z"/>
  </g>
  <g>
    <g>
      <path class="st6" d="M175.8,779.64h-26.76l-17.68-20.49-14.1,20.49h-28.01l24.05-34.91h15.47l-12.94-3.66-29.83-34.6h26.86l14.87,17.35,11.89-17.35h28.12l-24.37,35.44,32.42,37.74Z"/>
      <path class="st20" d="M191.23,723.51l12.94,3.66-.03,7.94h39.1l-.05,15.89h-39.2l.02,8.68c0,.77.32,1.45.92,2.04s1.29.89,2.05.89h43.28l-.03,17.04h-53.42c-1.95,0-3.82-.4-5.62-1.2-1.79-.8-3.36-1.88-4.71-3.24-1.35-1.36-2.43-2.93-3.27-4.7-.83-1.78-1.26-3.61-1.28-5.49l.33-58.54h68.36l-.14,17.04h-59.27Z"/>
      <path class="st14" d="M371.85,758.94h-53.42l-.05,20.7h-23.21l.41-73.17h73.49c1.67,0,3.29.35,4.85,1.05,1.56.7,2.95,1.66,4.17,2.87,1.21,1.22,2.19,2.6,2.94,4.13.75,1.53,1.11,3.14,1.09,4.81l-.17,29.79c0,2.86-.96,5.21-2.86,7.06-1.91,1.85-4.32,2.77-7.25,2.77ZM318.55,741.8h39.51c.56,0,1.01-.17,1.36-.52.35-.35.54-.8.57-1.36l.1-13.49c-.01-.77-.32-1.44-.92-2.04-.6-.59-1.29-.89-2.05-.89h-51.43l12.94,3.66-.08,14.63Z"/>
      <path class="st18" d="M456.98,751.63h-49.55l12.94,3.66-.18,24.36h-21.95l.41-73.17h21.95l-.2,28.01h36.59l.2-28.01h21.95l-.41,73.17h-21.95l.2-28.01Z"/>
      <path class="st32" d="M519.66,758.94l-.16,20.7h-21.95l.34-63.35c-.01-2.93.94-5.3,2.85-7.11,1.91-1.81,4.33-2.72,7.26-2.72h50.7c1.95,0,3.82.4,5.62,1.2,1.79.8,3.36,1.88,4.71,3.24,1.34,1.36,2.43,2.91,3.26,4.65.83,1.74,1.21,3.55,1.16,5.43l-.31,58.64h-21.95l.16-20.7h-31.67ZM519.67,741.8h31.78l.05-15.37c-.01-.77-.32-1.44-.92-2.04-.6-.59-1.29-.89-2.05-.89h-41.6l12.84,3.66-.08,14.63ZM529.83,701.55l.08-14.63h14.11l-4.47,14.63h-9.72Z"/>
      <path class="st10" d="M650.26,706.47c1.88,0,3.72.4,5.51,1.2,1.79.8,3.38,1.88,4.76,3.24,1.38,1.36,2.48,2.91,3.31,4.65.83,1.74,1.21,3.55,1.16,5.43l-.23,48.82c0,2.93-.94,5.3-2.85,7.11-1.91,1.81-4.33,2.72-7.26,2.72h-53.1c-1.95,0-3.82-.4-5.62-1.2-1.79-.8-3.36-1.88-4.71-3.24-1.35-1.36-2.43-2.93-3.27-4.7-.83-1.78-1.26-3.61-1.28-5.49l.36-48.71c-.01-2.93.92-5.3,2.8-7.11,1.88-1.81,4.28-2.72,7.21-2.72h53.21ZM595.97,723.51l12.94,3.66-.16,32.51c0,.77.32,1.45.92,2.04s1.29.89,2.05.89h44.01l-12.84-3.66.16-32.51c-.01-.77-.32-1.44-.92-2.04s-1.29-.89-2.05-.89h-44.11Z"/>
      <path class="st8" d="M775.91,779.64h-20.7l-24.76-58.54h-12.96l12.84,3.66-.73,54.88h-22.58l.41-73.17h39.62l16.72,45.16,13.8-45.16h42.02l-.41,73.17h-22.47l-.4-58.54-20.4,58.54Z"/>
      <path class="st24" d="M838.45,716.29c-.01-2.93.94-5.3,2.85-7.11,1.91-1.81,4.33-2.72,7.26-2.72h50.7c1.95,0,3.82.4,5.62,1.2,1.79.8,3.36,1.88,4.71,3.24,1.34,1.36,2.43,2.91,3.26,4.65.83,1.74,1.21,3.55,1.16,5.43l-.31,58.64h-21.95l.16-20.7h-31.67l-.16,20.7h-21.95l.34-63.35ZM860.32,727.17l-.08,14.63h31.78l.05-15.37c-.01-.77-.32-1.44-.92-2.04-.6-.59-1.29-.89-2.05-.89h-41.6l12.84,3.66ZM859.41,697.79c-.12-.63-.04-1.25.26-1.88.41-.77.78-1.53,1.12-2.3l1.02-2.3c.7-1.39,1.7-2.47,2.98-3.24,1.28-.77,2.72-1.15,4.32-1.15,2.16,0,4.24.65,6.23,1.93,1.99,1.29,3.57,2.95,4.73,4.97l.02.1,3.34-7h3.34c.7,0,1.36.18,1.98.52.62.35,1.15.8,1.57,1.36.42.56.69,1.15.81,1.78.12.63.07,1.25-.16,1.88l-1.67,4.29c-.54,1.53-1.48,2.72-2.81,3.55-1.34.84-2.88,1.25-4.62,1.25h-2.4c-1.88,0-3.67-.57-5.35-1.72-1.69-1.15-2.95-2.63-3.79-4.44l-2.35,6.17h-4.18c-.7,0-1.38-.17-2.03-.52-.66-.35-1.19-.8-1.57-1.36-.39-.56-.65-1.18-.78-1.88Z"/>
    </g>
    <g>
      <path class="st21" d="M106.84,653c-2.03-.91-4.45-1.37-7.26-1.37h-13.58v31.37h7.26v-8.65h6.32c2.81,0,5.23-.46,7.26-1.37,2.03-.91,3.6-2.22,4.71-3.92,1.11-1.7,1.66-3.72,1.66-6.05s-.55-4.39-1.66-6.1c-1.11-1.7-2.67-3.01-4.71-3.92ZM104.2,667.01c-1.11.96-2.78,1.43-5.02,1.43h-5.92v-10.89h5.92c2.24,0,3.91.48,5.02,1.43,1.11.96,1.66,2.3,1.66,4.03s-.55,3.03-1.66,3.99Z"/>
      <polygon class="st19" points="144.35 664.01 130.1 664.01 130.1 651.64 122.84 651.64 122.84 683.01 130.1 683.01 130.1 670.15 144.35 670.15 144.35 683.01 151.61 683.01 151.61 651.64 144.35 651.64 144.35 664.01"/>
      <path class="st28" d="M177.52,686.23c-.87,0-1.6.29-2.2.87-.6.58-.9,1.34-.9,2.26s.3,1.66.9,2.2c.6.54,1.33.81,2.2.81s1.6-.27,2.2-.81c.6-.54.9-1.27.9-2.2s-.3-1.68-.9-2.26c-.6-.58-1.33-.87-2.2-.87Z"/>
      <path class="st5" d="M184.51,668.94c0,2.99-.61,5.14-1.84,6.45-1.23,1.31-2.94,1.97-5.15,1.97s-3.93-.66-5.15-1.97c-1.23-1.31-1.84-3.47-1.84-6.45v-17.3h-7.26v17.57c0,4.6,1.26,8.14,3.76,10.62,2.51,2.48,5.99,3.72,10.44,3.72s7.93-1.24,10.44-3.72c2.51-2.48,3.76-6.02,3.76-10.62v-17.57h-7.17v17.3Z"/>
      <polygon class="st3" points="216.95 657.55 226.99 657.55 226.99 683.01 234.25 683.01 234.25 657.55 244.29 657.55 244.29 651.64 216.95 651.64 216.95 657.55"/>
      <path class="st2" d="M273.11,668.94c0,2.99-.61,5.14-1.84,6.45-1.23,1.31-2.94,1.97-5.15,1.97s-3.93-.66-5.15-1.97c-1.23-1.31-1.84-3.47-1.84-6.45v-17.3h-7.26v17.57c0,4.6,1.26,8.14,3.76,10.62,2.51,2.48,5.99,3.72,10.44,3.72s7.93-1.24,10.44-3.72c2.51-2.48,3.76-6.02,3.76-10.62v-17.57h-7.17v17.3Z"/>
      <polygon class="st9" points="270.2 646.35 264.15 639.9 256.62 639.9 264.73 646.35 270.2 646.35"/>
      <polygon class="st1" points="313.54 670.67 297.94 651.64 291.93 651.64 291.93 683.01 299.11 683.01 299.11 663.97 314.75 683.01 320.71 683.01 320.71 651.64 313.54 651.64 313.54 670.67"/>
      <path class="st7" d="M340.85,660.06c.91-.9,1.99-1.58,3.25-2.06,1.25-.48,2.64-.72,4.17-.72s3.05.29,4.39.87c1.34.58,2.58,1.47,3.72,2.67l4.66-4.3c-1.52-1.76-3.4-3.11-5.62-4.03-2.23-.93-4.73-1.39-7.51-1.39-2.51,0-4.81.4-6.9,1.19-2.09.79-3.91,1.92-5.47,3.38-1.55,1.46-2.76,3.18-3.61,5.15-.85,1.97-1.28,4.14-1.28,6.5s.43,4.53,1.28,6.5c.85,1.97,2.05,3.69,3.59,5.15,1.54,1.46,3.35,2.59,5.42,3.38,2.08.79,4.35,1.19,6.83,1.19,2.24,0,4.49-.34,6.74-1.03,2.26-.69,4.24-1.67,5.94-2.96v-12.73h-6.63v9.2c-.48.25-.97.47-1.46.64-1.36.46-2.76.69-4.19.69s-2.86-.24-4.1-.72c-1.24-.48-2.32-1.17-3.23-2.08-.91-.91-1.61-1.98-2.11-3.2-.49-1.23-.74-2.57-.74-4.03s.25-2.85.74-4.08c.49-1.22,1.2-2.29,2.11-3.18Z"/>
    </g>
  </g>
</svg>